<svg version="1.1" id="Layer_1" xmlns="http://www.w3.org/2000/svg" xmlns:xlink="http://www.w3.org/1999/xlink" x="0px" y="0px"
	 width="100%" viewBox="0 0 576 832" enable-background="new 0 0 576 832" xml:space="preserve">
<path fill="#000000" opacity="1.000000" stroke="none" 
	d="
M297.291931,709.301880 
	C296.886414,713.092529 295.890137,716.225891 293.260040,718.581787 
	C286.672424,724.482483 284.175751,732.245239 283.203979,740.676514 
	C282.648071,745.499817 281.032318,749.706543 276.927032,752.625488 
	C273.613556,754.981567 273.043396,758.633484 272.334930,762.224609 
	C270.984009,769.072266 269.660248,775.925415 268.285553,782.768311 
	C267.320923,787.570251 265.356750,788.866150 260.485626,787.512390 
	C255.100616,786.015747 249.414444,785.088501 245.848343,779.863159 
	C244.648422,778.104980 242.260147,778.215637 240.267624,778.311035 
	C230.045929,778.800415 221.330124,773.846375 212.141724,770.609741 
	C211.542648,770.398682 210.883072,769.950439 210.560699,769.423462 
	C204.855865,760.097961 194.663376,755.492920 187.619339,747.431458 
	C180.456100,739.233582 174.433395,730.281250 167.861282,721.698547 
	C167.053162,720.643250 166.113297,719.589111 165.662415,718.375549 
	C161.428177,706.978149 152.686371,698.486267 146.445984,688.388062 
	C141.779953,680.837402 138.112900,672.932556 137.413803,663.916748 
	C137.338181,662.941528 137.303345,661.366760 136.762436,661.114441 
	C129.699692,657.820190 128.929764,650.447693 128.273590,644.690613 
	C127.042313,633.887573 126.502136,623.006775 124.989716,612.167114 
	C123.832726,603.874817 127.199516,600.537537 135.288681,598.528687 
	C136.094269,598.328674 136.910492,598.165833 137.706116,597.932312 
	C146.542252,595.339478 146.617249,595.315491 144.171936,586.521912 
	C143.560852,584.324402 144.007217,582.760071 145.312912,581.011414 
	C151.194305,573.134766 156.913330,565.168335 164.972687,559.214661 
	C169.264557,556.044128 172.735962,551.957886 176.066559,547.768921 
	C177.895126,545.469116 179.560699,542.839966 182.950043,542.371887 
	C183.645615,542.275879 184.427521,541.546631 184.847473,540.900024 
	C192.208344,529.566528 202.248901,520.458679 210.563705,509.903503 
	C217.528748,501.061737 218.891357,491.293793 211.409821,482.834137 
	C207.283646,478.168549 205.223236,472.228882 202.857941,466.561279 
	C199.524246,458.573181 196.652725,450.387909 191.693909,443.168488 
	C188.480011,438.489441 187.716553,433.007019 186.921890,427.555206 
	C186.634384,425.582764 186.558456,423.363281 183.690994,423.389160 
	C180.931030,423.414032 181.215790,425.799072 180.919434,427.399963 
	C179.818878,433.344971 177.315033,438.798523 175.280487,444.417206 
	C173.359406,449.722504 170.544922,450.742188 165.479187,447.992676 
	C162.361191,446.300262 161.228607,438.325012 164.006470,436.033752 
	C165.481094,434.817474 165.474060,433.571533 165.289871,432.081665 
	C164.322266,424.255280 166.194016,417.359467 171.536972,411.376190 
	C174.229599,408.360809 175.307495,404.366119 176.955002,400.733429 
	C184.406982,384.302063 192.849014,368.674469 205.668640,355.452698 
	C214.317200,346.532867 220.830383,335.649933 227.888428,325.340851 
	C232.489578,318.620331 237.329681,312.075348 245.002823,308.377991 
	C245.948715,307.922211 246.771271,306.820099 247.240814,305.824097 
	C255.621857,288.046539 268.086700,273.004730 279.883820,257.566559 
	C287.271637,247.898590 294.634064,238.245377 301.158478,227.975555 
	C302.034637,226.596436 302.715759,225.020233 303.142731,223.442078 
	C304.638824,217.912476 308.316956,214.000687 312.516541,210.473099 
	C313.741669,209.444000 314.299255,208.090683 314.890961,206.729263 
	C320.207458,194.497177 326.376099,182.720322 333.555023,171.472412 
	C335.438080,168.522125 337.100525,165.450928 338.118164,162.058029 
	C338.844574,159.636154 339.886475,157.440857 342.359497,156.162033 
	C344.272278,155.172928 344.829346,153.087143 345.517059,151.220871 
	C349.039612,141.661697 353.178772,132.482834 359.537292,124.346588 
	C362.913879,120.025963 365.212860,114.893234 366.868256,109.645622 
	C368.053436,105.888580 369.937042,102.742889 372.359406,99.696091 
	C374.920135,96.475281 376.938385,93.570999 382.079376,94.923752 
	C386.281494,96.029457 389.071442,97.553337 389.560944,102.086304 
	C389.629517,102.721313 390.031464,103.320282 390.298553,103.984253 
	C393.376801,101.808968 392.781464,99.407669 392.547302,97.484253 
	C391.941376,92.507629 393.752075,88.858215 397.503784,85.723267 
	C400.178009,83.488663 402.491547,80.821304 404.954926,78.336021 
	C406.259125,77.020157 407.617340,75.694214 409.506226,75.412834 
	C413.916809,74.755798 417.277710,72.692863 419.358368,68.665672 
	C421.087189,65.319473 423.736237,65.842834 426.633026,66.870522 
	C430.052612,68.083679 428.835968,70.475899 428.787323,72.996841 
	C428.613434,82.001709 425.283569,89.793900 420.435181,97.113373 
	C419.566895,98.424225 418.846649,99.959976 419.549286,101.346741 
	C426.896423,115.847488 418.794678,128.336487 414.446716,141.301392 
	C403.294037,174.556976 389.720673,207.008621 381.813141,241.346741 
	C379.705139,250.500504 379.419708,259.761566 378.345154,268.972656 
	C377.972137,272.170624 377.089172,274.453674 374.028229,275.497437 
	C370.650116,276.649414 369.070129,279.089935 368.431793,282.438843 
	C366.213806,294.074921 360.991425,304.786285 358.007416,316.210693 
	C356.254120,322.923431 356.843079,329.791595 355.500214,336.477295 
	C355.405426,336.949158 355.340271,337.652679 355.601013,337.936554 
	C359.726349,342.427887 359.502045,347.946014 359.417786,353.459473 
	C359.408661,354.057007 359.732086,355.066711 360.132172,355.201874 
	C365.503693,357.016907 365.226624,362.199585 366.587494,366.232727 
	C370.043671,376.475647 373.124725,386.844604 376.454285,397.131287 
	C377.112366,399.164459 377.795746,401.428772 379.169708,402.953827 
	C392.628479,417.893158 399.800140,436.701385 410.452423,453.354095 
	C415.186890,460.755493 418.354675,469.197571 425.026855,475.330322 
	C428.668945,478.677948 429.797272,478.544312 431.658264,473.830048 
	C432.546906,471.578888 434.355164,469.588715 434.049164,466.838379 
	C432.182800,466.108429 430.360565,465.616058 429.278076,467.797150 
	C428.062927,470.245667 426.238586,469.388580 424.587372,468.771484 
	C422.019989,467.811951 418.074677,458.822479 419.804535,456.066376 
	C421.432465,453.472595 423.327484,450.042175 427.482849,450.070587 
	C431.131348,450.095581 434.527130,449.920959 437.745392,452.709930 
	C440.505615,455.101929 443.955536,454.814728 446.228546,451.133301 
	C447.193359,449.570709 448.271973,447.629639 450.497650,448.885956 
	C453.163849,450.390869 456.825989,450.831177 457.885101,454.315125 
	C458.719330,457.059296 456.397461,458.010590 454.464203,459.050903 
	C451.829407,460.468658 451.599365,463.390930 450.391327,465.702972 
	C448.510925,469.301788 447.462616,473.632538 442.470032,474.466583 
	C441.175720,474.682770 440.777466,475.901886 440.297729,476.990601 
	C437.144470,484.147095 433.995148,491.305878 430.763519,498.427094 
	C428.961304,502.398407 425.973724,505.396301 422.086029,507.236511 
	C420.262085,508.099884 419.765717,509.515381 419.230072,511.030182 
	C417.648285,515.503540 415.120514,519.344299 411.950348,522.849243 
	C407.423798,527.853638 405.029846,534.200989 401.485260,539.822571 
	C397.929413,545.461853 395.684052,552.294067 388.501282,554.893799 
	C387.339417,555.314392 387.481293,556.870300 387.044617,557.925598 
	C384.683411,563.631592 383.444122,570.139465 376.595337,572.724731 
	C375.353210,573.193604 375.272644,574.573975 375.223846,575.742859 
	C374.888184,583.783691 369.095856,589.529114 365.066010,595.328369 
	C362.349091,599.238281 359.455414,602.873779 357.827057,607.422241 
	C357.771576,607.577271 357.705505,607.802979 357.586548,607.850159 
	C352.017059,610.064331 350.528137,614.429871 350.750397,620.008179 
	C350.814148,621.608948 348.779327,622.113831 347.297577,622.395813 
	C343.690948,623.081787 342.686157,625.615295 342.257690,628.842590 
	C341.516235,634.427246 342.289795,640.846558 334.985291,643.175232 
	C334.533600,643.319214 334.256165,644.248718 334.041656,644.863098 
	C329.570221,657.669434 321.093079,668.477905 316.026886,680.989746 
	C315.279205,682.836121 314.369995,684.670654 312.106201,685.203125 
	C311.643311,685.311951 310.934082,685.569946 310.845978,685.896240 
	C309.569489,690.624146 306.784943,694.308289 303.890594,698.214050 
	C302.056122,700.689636 302.458435,704.819092 298.476868,706.258179 
	C297.854950,706.482910 297.696655,707.990295 297.291931,709.301880 
M346.696777,195.895386 
	C345.897736,196.742538 345.187561,197.702087 344.283783,198.416779 
	C340.966187,201.040253 339.638031,205.957672 336.158112,207.604416 
	C332.741577,209.221176 331.601776,211.498901 330.344788,214.358261 
	C328.674133,218.158646 327.322205,222.574753 323.488373,224.458649 
	C320.693298,225.832092 319.693329,227.661285 318.663696,230.186234 
	C316.506500,235.476547 316.736664,242.196350 309.973602,244.906097 
	C309.077515,245.265137 308.625427,247.138351 308.280609,248.396088 
	C306.894318,253.452118 304.145538,257.781799 301.504669,262.236877 
	C297.132355,269.612793 290.344299,275.422394 288.637695,284.626160 
	C287.805725,289.112823 284.959900,294.023499 281.519867,297.004578 
	C278.090118,299.976746 276.844696,303.219635 276.141327,307.055542 
	C275.092499,312.775452 271.541382,317.571411 268.421783,321.737732 
	C266.138306,324.787415 264.358856,327.615173 263.191162,331.104126 
	C262.731323,332.478149 261.923523,333.735687 261.241699,335.111725 
	C257.044647,333.971893 253.437210,333.450775 250.301346,337.445862 
	C242.443314,347.456970 240.708908,358.635010 243.004486,370.772308 
	C243.185715,371.730408 243.334244,373.260956 243.909256,373.489166 
	C248.735123,375.404449 246.944092,379.052429 246.361023,382.318848 
	C245.599060,386.587341 245.077011,390.842529 245.122162,395.205811 
	C245.344360,416.675568 245.979477,438.120728 248.174942,459.496033 
	C248.496048,462.622345 249.743378,465.170044 252.368469,467.325958 
	C257.877747,464.212128 263.404114,461.186890 268.823975,457.981628 
	C271.334869,456.496704 272.420807,453.679321 274.193268,451.501099 
	C275.080688,450.410645 276.538300,449.560364 277.904999,449.121918 
	C284.302582,447.069550 289.117249,442.744720 293.949158,438.388367 
	C297.779297,434.935150 301.622314,431.491028 305.574768,428.180298 
	C308.760315,425.511963 315.087769,425.530212 318.174103,428.201050 
	C321.834747,431.368805 319.531067,434.458496 317.859558,437.557434 
	C315.208893,442.471863 311.388031,446.315094 307.291229,450.043732 
	C301.415527,455.391510 294.293610,459.618866 290.426575,466.878784 
	C284.198853,478.570618 272.777649,485.178253 263.876129,494.223724 
	C258.957672,499.221771 254.051743,503.407990 255.185822,511.250854 
	C255.539551,513.697083 255.357346,516.251953 255.165207,518.737244 
	C254.969803,521.265015 254.391907,524.173157 251.640808,524.748474 
	C249.094376,525.281006 246.394653,524.252014 244.339081,522.315491 
	C243.641068,521.657959 243.887939,520.288452 242.266357,519.909729 
	C241.505875,520.153381 239.846222,520.171753 239.426468,520.902405 
	C236.595673,525.830078 229.895340,528.817627 231.891846,536.254089 
	C232.520523,538.595764 231.986084,541.232422 232.133072,543.725281 
	C232.288666,546.364319 230.828369,547.409363 228.621552,548.442444 
	C224.630814,550.310608 222.038574,547.187622 218.863586,546.206604 
	C217.013184,545.634888 214.783340,543.835876 213.516113,546.190918 
	C210.732162,551.364502 205.290070,553.742126 201.819656,558.268799 
	C197.697723,563.645325 193.046921,569.049133 187.494522,572.740051 
	C183.955978,575.092285 181.872177,577.420532 180.679993,581.105957 
	C180.026459,583.126282 178.974243,584.725891 176.641449,585.012329 
	C175.148758,585.195679 174.262772,586.184753 173.701263,587.443542 
	C171.727142,591.869141 168.190903,594.754883 164.454910,597.658447 
	C159.026215,601.877563 159.821701,605.593872 166.119583,608.140625 
	C173.515564,611.131470 182.135010,611.919189 187.258713,619.168091 
	C192.037048,625.928406 200.673096,627.114197 206.262741,633.681763 
	C212.627075,641.159424 220.179718,648.465942 229.178452,653.491516 
	C233.101822,655.682678 235.186264,659.353149 237.616959,663.018860 
	C242.158066,669.867249 243.911453,678.997253 252.705231,682.637207 
	C253.266602,682.869568 253.540146,684.042480 253.754852,684.830261 
	C256.666016,695.511169 264.759369,702.913208 270.881683,711.517273 
	C273.691986,715.466797 278.091461,714.777161 280.723969,710.752747 
	C283.095703,707.126892 285.304962,703.379639 286.246765,699.076416 
	C287.970795,691.198792 291.173218,683.855347 294.848846,676.776978 
	C297.172699,672.301758 296.728027,668.154663 295.307129,663.778137 
	C294.720612,661.971680 293.756683,660.266785 291.758209,659.950500 
	C289.992371,659.671021 289.176392,661.362427 288.464142,662.593140 
	C286.084442,666.705322 281.898590,668.336975 277.896301,669.658325 
	C274.086792,670.916138 269.023376,670.576355 266.861359,667.399902 
	C264.666840,664.175720 263.224182,659.411499 265.824860,655.130127 
	C274.494690,640.857666 284.130890,627.223511 296.136383,615.608948 
	C307.421967,604.690918 319.733521,594.859924 330.709808,583.562012 
	C335.696533,578.429077 341.224731,573.833679 345.035309,567.657715 
	C345.662872,566.640503 346.348206,565.670410 347.685699,565.638672 
	C350.008636,565.583557 350.710693,563.905457 351.308319,562.114258 
	C351.784180,560.687927 352.082825,558.853638 353.602875,558.431702 
	C358.463562,557.082764 361.389587,552.999573 364.983307,550.101196 
	C368.569916,547.208435 372.982056,544.533203 374.370483,539.296997 
	C375.382416,535.480652 375.672668,530.978699 380.617401,529.405151 
	C381.682678,529.066162 381.634888,527.422119 381.776733,526.259155 
	C382.629303,519.270081 386.962616,514.982239 392.991455,512.164978 
	C394.470520,511.473816 395.470367,510.824524 395.851135,509.126740 
	C397.358246,502.407074 400.447937,496.290558 403.452698,490.167969 
	C404.533569,487.965546 404.530365,486.111389 403.186127,484.115845 
	C399.094604,478.041809 395.893158,471.068787 390.763123,466.068939 
	C384.229553,459.701141 381.247498,452.352173 379.796082,443.843811 
	C379.497253,442.092041 379.306091,439.910980 377.133606,439.418579 
	C374.469177,438.814667 373.966156,436.759247 373.305328,434.695679 
	C369.950562,424.219666 365.964325,413.982361 361.835022,403.790527 
	C359.980011,399.211975 356.639740,396.241272 352.363617,392.773193 
	C352.921539,395.907532 353.131317,398.068268 353.715179,400.122681 
	C354.479523,402.812378 353.496002,406.643524 355.967957,408.052521 
	C360.619629,410.703949 359.926025,414.742035 360.332214,418.797699 
	C360.996613,425.430634 359.364624,433.014526 367.131531,437.050415 
	C367.246826,437.110352 367.103760,437.667572 367.073334,437.992126 
	C358.377441,442.512726 349.110321,436.036011 345.306091,428.798065 
	C340.650177,419.939728 338.689941,410.077423 337.268219,400.177948 
	C336.528076,395.024109 334.517761,389.936066 337.016846,384.673187 
	C337.780090,383.065765 336.277679,381.843964 335.235962,380.834381 
	C328.792023,374.589386 325.559540,366.684174 323.016846,358.295227 
	C322.127930,355.362610 321.074493,352.384888 320.010925,349.494934 
	C318.805756,346.220306 317.738983,341.864807 320.787231,338.683685 
	C323.618683,335.728851 324.611755,332.129761 325.563751,328.432159 
	C328.878326,315.558167 332.047760,302.710510 338.699951,290.922760 
	C344.568420,280.523773 351.135620,270.432770 354.497101,258.727264 
	C357.846191,247.064926 360.450806,235.128448 365.471130,224.017761 
	C372.868317,207.646667 377.600433,190.695831 378.941101,172.692703 
	C379.454773,165.794586 379.258057,158.304871 384.859955,152.644165 
	C385.649994,151.845810 386.340637,150.062103 385.275970,148.290909 
	C382.656372,149.431290 380.008881,150.317261 378.544556,153.077621 
	C373.738403,162.137451 366.392120,169.321259 360.493317,177.554871 
	C356.173584,183.584412 349.305939,187.676865 346.696777,195.895386 
M253.367630,709.137512 
	C248.109436,705.299438 246.503891,699.427795 244.660110,693.660950 
	C244.431000,692.944275 243.620438,692.373535 242.996674,691.830017 
	C240.440491,689.602661 238.788651,686.745789 237.060760,683.880005 
	C234.149170,679.051086 232.751282,672.806702 228.167709,669.594604 
	C219.990799,663.864380 214.649841,654.674255 204.941452,650.939636 
	C204.364502,650.717651 203.590515,650.151001 203.503510,649.642761 
	C202.440994,643.437073 196.827286,643.026367 192.563965,640.851379 
	C190.075684,639.581909 186.927734,639.455750 185.112534,637.051453 
	C182.062347,633.011230 177.846344,631.608337 172.530914,633.262207 
	C172.415878,635.110840 173.339279,636.705017 174.025543,638.372986 
	C177.634781,647.145264 182.128723,655.689026 184.512283,664.784668 
	C186.237396,671.367737 190.347824,675.087891 194.627838,679.412659 
	C199.318909,684.152771 204.388626,690.029297 204.853928,696.114746 
	C205.427979,703.622437 210.431900,705.246521 214.718857,708.363892 
	C216.546005,709.692566 218.979721,710.192871 221.146988,711.046326 
	C223.220474,711.862732 224.585983,713.268372 224.247375,715.587952 
	C223.057083,723.741821 228.241547,728.773010 233.529434,733.242493 
	C238.457504,737.407898 242.693863,741.858215 245.556671,747.636475 
	C246.869308,750.285828 248.806274,752.157349 252.045822,751.898926 
	C257.959717,737.946594 260.343658,724.068542 253.367630,709.137512 
M149.974762,666.691345 
	C152.017822,672.320740 153.639160,678.149048 156.819092,683.280884 
	C165.679123,697.579468 173.894592,712.364258 183.823547,725.885681 
	C191.436798,736.253540 198.474380,747.996948 211.978500,752.463806 
	C212.568100,752.658875 213.330353,753.156311 213.497833,753.678040 
	C215.583801,760.176331 221.629944,758.547180 226.210312,760.687073 
	C227.490799,756.241638 227.650574,752.531677 226.202087,748.821655 
	C223.840576,742.773010 221.213211,736.811218 219.203751,730.647888 
	C217.829880,726.433960 215.535965,724.591797 211.181122,725.313660 
	C200.898193,727.018188 194.640701,720.362549 188.143707,714.202881 
	C184.910217,711.137207 183.258774,706.255615 178.769272,704.772888 
	C175.006256,703.530029 173.642639,701.094604 172.693710,697.683350 
	C171.671875,694.009888 171.740891,689.573669 166.882309,688.076355 
	C165.919739,687.779724 165.856339,686.397522 165.896149,685.405334 
	C165.991623,683.026611 164.966431,681.196716 163.212921,679.760803 
	C160.510315,677.547607 159.198395,674.544189 158.085281,671.363953 
	C156.380249,666.492493 154.586884,661.651672 152.807434,656.806580 
	C152.205093,655.166504 151.709564,653.378845 148.936752,653.007507 
	C148.966446,657.567139 147.913834,661.802673 149.974762,666.691345 
M222.886505,463.459747 
	C217.655838,453.471283 220.625366,442.400635 219.310959,431.711700 
	C216.622894,432.021973 213.921585,435.517700 212.556580,431.434052 
	C211.356247,427.843079 210.148148,423.478027 212.801163,420.375214 
	C218.632584,413.555084 218.131073,405.752380 217.777985,397.737518 
	C217.470139,390.749664 218.947815,389.069031 225.872421,387.731445 
	C227.354401,387.445160 229.263626,387.532562 229.409332,385.676331 
	C229.699509,381.979492 230.431717,378.171143 228.629944,374.274658 
	C224.781067,375.821472 220.317902,375.881897 218.636963,380.282440 
	C216.845016,384.973602 213.797073,388.710999 209.973816,391.656006 
	C204.495316,395.876129 203.471649,403.756409 196.939865,407.023102 
	C196.514633,407.235779 196.274338,408.211121 196.278610,408.829407 
	C196.323990,415.399902 195.851273,421.747681 198.388382,428.388000 
	C200.891083,434.938324 206.608246,438.713928 209.627533,444.955261 
	C212.073273,450.010925 214.152634,455.830566 217.725861,460.564087 
	C218.687546,461.838043 219.833862,463.507385 218.436783,465.092377 
	C217.142715,466.560547 215.678238,465.156982 214.305939,464.803131 
	C213.698486,464.646545 213.079575,464.141357 212.504868,464.868927 
	C213.971268,472.907776 214.864243,473.756409 222.289597,473.919769 
	C222.791290,470.732178 223.961517,467.594208 222.886505,463.459747 
M287.735321,652.556519 
	C291.927124,651.993713 295.961792,650.765198 299.750122,654.594788 
	C301.413879,656.276672 305.099213,657.480225 306.764862,653.478760 
	C311.377167,642.398743 317.354187,631.994202 322.593384,621.225464 
	C324.730591,616.832581 325.343597,612.228394 324.449158,606.083679 
	C320.024597,610.605286 315.495819,613.572571 311.615295,616.825134 
	C308.033295,619.827515 304.674652,623.808533 301.124847,627.226074 
	C297.290375,630.917542 294.942261,634.517151 298.263306,639.728882 
	C298.802979,640.575745 299.519989,641.818909 298.294250,642.994263 
	C296.198883,643.657104 294.108490,642.954407 292.010437,642.542603 
	C289.247772,642.000366 286.361359,641.871826 284.954041,644.702759 
	C283.518890,647.589661 284.089935,650.482483 287.735321,652.556519 
M191.221542,690.209106 
	C188.968048,686.548462 187.915878,681.737488 185.193970,678.956116 
	C176.794083,670.372620 173.135956,659.666626 169.293869,648.873230 
	C167.695343,644.382568 165.831024,639.986572 164.087555,635.547546 
	C161.745987,650.420410 166.401550,664.033630 172.331711,676.620728 
	C176.395691,685.246765 181.496918,694.549194 190.996292,699.326599 
	C194.170212,700.922913 196.342270,703.090881 197.532272,706.401550 
	C198.954834,710.359253 201.993362,712.351440 205.978119,713.239258 
	C206.621124,709.871643 206.760971,709.691528 205.511093,708.721069 
	C199.342987,703.932312 195.277817,697.543884 191.221542,690.209106 
M366.345886,146.853058 
	C368.804199,140.856918 370.975220,134.677109 376.080902,130.251526 
	C379.782227,127.043228 382.522614,123.132057 384.966187,118.933449 
	C386.021301,117.120590 387.057068,115.546112 385.577118,113.491547 
	C384.046631,111.366905 381.754700,110.774300 379.447021,110.709412 
	C376.979431,110.640053 377.084076,113.140968 376.406281,114.702942 
	C375.681488,116.373222 375.286926,118.183334 374.644318,119.893356 
	C372.453064,125.724266 372.878967,133.014557 365.600433,136.057785 
	C365.039062,136.292496 364.700104,137.463089 364.566864,138.250977 
	C363.809204,142.730103 360.972046,145.947067 358.339020,149.408112 
	C355.697510,152.880219 353.596191,156.780792 352.850525,161.243988 
	C355.549988,162.006790 355.751404,160.386749 356.002350,158.886124 
	C356.263123,157.326614 356.776428,155.797943 358.429688,155.429703 
	C362.769836,154.463058 364.457855,151.086166 366.345886,146.853058 
M432.888824,481.973907 
	C431.645172,481.180420 429.939117,480.720154 429.927277,482.628174 
	C429.910431,485.347931 429.250793,488.475952 431.863678,491.057251 
	C434.303680,488.266998 434.342834,485.499329 432.888824,481.973907 
M226.359390,539.558899 
	C226.369354,539.890747 226.306244,540.249146 226.413834,540.545532 
	C226.491318,540.758972 226.796341,540.889709 227.263245,541.274231 
	C227.921997,537.692322 229.153076,534.395752 227.863083,530.772034 
	C227.370529,533.485779 226.877975,536.199524 226.359390,539.558899 
M231.438278,525.055176 
	C232.535370,523.664490 232.548203,522.273682 231.720016,520.733398 
	C230.004791,521.444763 228.865768,522.456848 228.612091,523.927063 
	C228.262909,525.950806 229.078033,526.765869 231.438278,525.055176 
z"/>
</svg>